<svg width="41" height="40" viewBox="0 0 41 40" fill="none" xmlns="http://www.w3.org/2000/svg">
<circle cx="20.25" cy="20" r="20" fill="#495E57"/>
<path d="M18.37 17.46C18.77 17.04 18.93 16.66 18.93 16.36C18.93 15.74 18.35 15.36 17.75 15.36C17.41 15.36 17.07 15.48 16.79 15.78L13.81 18.8C13.41 19.2 13.21 19.74 13.21 20.24C13.21 20.76 13.41 21.26 13.79 21.66L16.75 24.64C17.03 24.92 17.39 25.04 17.71 25.04C18.31 25.04 18.89 24.66 18.89 24.06C18.89 23.74 18.75 23.36 18.35 22.94L16.95 21.52H27.27C27.93 21.52 28.47 20.98 28.47 20.28C28.47 19.62 27.93 19.08 27.27 19.08H16.79L18.37 17.46Z" fill="white"/>
</svg>
