<svg width="130" height="146" viewBox="0 0 130 146" fill="none" xmlns="http://www.w3.org/2000/svg">
<path d="M65 39C44.576 39 28 55.576 28 76C28 96.424 44.576 113 65 113C85.424 113 102 96.424 102 76C102 55.576 85.424 39 65 39ZM57.6 94.5L39.1 76L44.317 70.783L57.6 84.029L85.683 55.946L90.9 61.2L57.6 94.5Z" fill="#48742C"/>
<path d="M30.1534 20.8831L28.0697 9.06546" stroke="#495E57" stroke-width="2" stroke-linecap="round"/>
<path d="M26.3612 26.5841L9.39065 9.61351" stroke="#495E57" stroke-width="2" stroke-linecap="round"/>
<path d="M21.2544 30.5247L9.4367 28.4409" stroke="#495E57" stroke-width="2" stroke-linecap="round"/>
<path d="M99.8213 125.092L101.905 136.909" stroke="#495E57" stroke-width="2" stroke-linecap="round"/>
<path d="M103.614 119.391L120.584 136.361" stroke="#495E57" stroke-width="2" stroke-linecap="round"/>
<path d="M108.72 115.45L120.538 117.534" stroke="#495E57" stroke-width="2" stroke-linecap="round"/>
</svg>
