<svg width="17" height="12" viewBox="0 0 17 12" fill="none" xmlns="http://www.w3.org/2000/svg">
<path d="M14.1712 2.23708C14.1712 1.40925 13.4209 0.731934 12.504 0.731934H10.0032V2.23708H12.504V4.23139L9.60304 7.50508H6.66878V3.74222H3.33439C1.49214 3.74222 0 5.08933 0 6.75251V9.01023H1.6672C1.6672 10.2595 2.78422 11.2679 4.16799 11.2679C5.55176 11.2679 6.66878 10.2595 6.66878 9.01023H10.4033L14.1712 4.75819V2.23708ZM4.16799 9.7628C3.70951 9.7628 3.33439 9.42414 3.33439 9.01023H5.00159C5.00159 9.42414 4.62647 9.7628 4.16799 9.7628Z" fill="black"/>
<path d="M6.66879 1.4845H2.50079V2.98962H6.66879V1.4845Z" fill="black"/>
<path d="M14.1711 6.75244C12.7874 6.75244 11.6703 7.76088 11.6703 9.01015C11.6703 10.2594 12.7874 11.2679 14.1711 11.2679C15.5549 11.2679 16.6719 10.2594 16.6719 9.01015C16.6719 7.76088 15.5549 6.75244 14.1711 6.75244ZM14.1711 9.76272C13.7127 9.76272 13.3375 9.42406 13.3375 9.01015C13.3375 8.59623 13.7127 8.25758 14.1711 8.25758C14.6296 8.25758 15.0047 8.59623 15.0047 9.01015C15.0047 9.42406 14.6296 9.76272 14.1711 9.76272Z" fill="black"/>
</svg>
